<?xml version="1.0" encoding="utf-8"?>
<!-- Generator: Adobe Illustrator 16.0.0, SVG Export Plug-In . SVG Version: 6.00 Build 0)  -->
<!DOCTYPE svg PUBLIC "-//W3C//DTD SVG 1.1//EN" "http://www.w3.org/Graphics/SVG/1.1/DTD/svg11.dtd">
<svg version="1.1" id="Layer_1" xmlns="http://www.w3.org/2000/svg" xmlns:xlink="http://www.w3.org/1999/xlink" x="0px" y="0px"
	  viewBox="0 0 100 100" enable-background="new 0 0 100 100" xml:space="preserve">
<path fill="#232323" stroke="#933845" stroke-miterlimit="10" d="M91.5,20.5V6.061L7.033,91.5H21.5v-9h3v9h9v-9h3v9h8v-9h3v9h9v-9h3
	v9h8v-9h3v9h9v-9h3v9h9v-10h-8v-3h8v-9h-8v-3h8v-8h-8v-3h8v-9h-8v-3h8v-8h-8v-3h8v-9h-8v-3H91.5z M79.5,78.5H35.776L79.5,34.803
	V78.5z"/>
</svg>
