<?xml version="1.0" encoding="utf-8"?>
<!-- Generator: Adobe Illustrator 16.0.0, SVG Export Plug-In . SVG Version: 6.00 Build 0)  -->
<!DOCTYPE svg PUBLIC "-//W3C//DTD SVG 1.1//EN" "http://www.w3.org/Graphics/SVG/1.1/DTD/svg11.dtd">
<svg version="1.1" id="Layer_1" xmlns="http://www.w3.org/2000/svg" xmlns:xlink="http://www.w3.org/1999/xlink" x="0px" y="0px"
	 viewBox="0 0 100 100" enable-background="new 0 0 100 100" xml:space="preserve">
<g>
	<path fill="#232323" stroke="#A03C4F" stroke-miterlimit="10" d="M96.257,21.1L82.826,34.529l-9.949-1.939l-0.01,0.004
		l-1.943-9.955L84.358,9.205c-1.699-0.53-3.508-0.814-5.388-0.814c-9.994,0-18.103,8.104-18.103,18.101
		c0,2.845,0.626,5.526,1.796,7.925L14.5,82.525v0.002c-1,1.064-1.676,2.538-1.676,4.169c0,3.253,2.443,5.89,5.697,5.89
		c1.63,0,2.979-0.656,3.979-1.727v0.004L70.832,42.75c2.395,1.171,5.187,1.844,8.028,1.844c10,0,18.161-8.102,18.161-18.104
		C97.021,24.613,96.791,22.803,96.257,21.1z M20.555,88.481c-0.458,0.457-1.087,0.741-1.789,0.741c-1.394,0-2.524-1.133-2.524-2.526
		c0-0.702,0.284-1.333,0.74-1.788c0.458-0.458,1.089-0.744,1.785-0.744c1.396,0,2.527,1.135,2.527,2.53
		C21.294,87.392,21.01,88.021,20.555,88.481z"/>
	<path fill="#232323" stroke="#A03C4F" stroke-width="1.0222" stroke-miterlimit="10" d="M43.096,7.357
		c-4.084,1.629-8.17,3.255-12.255,4.883c-2.729,1.091-5.78,1.774-7.917,3.913c-1.045,1.045-2.092,2.09-3.136,3.136
		c0,0-0.002,0-0.004,0.002c-0.859-0.834-1.714-1.669-2.573-2.502c-0.398-0.388-1.039-0.396-1.433-0.006
		c-1.495,1.498-2.987,2.993-4.479,4.483c-0.396,0.397-0.391,1.039,0,1.438c0.831,0.858,1.663,1.717,2.5,2.574
		c0,0-0.002,0-0.002,0.005c-3.442,3.439-6.882,6.879-10.324,10.324c-0.61,0.609-0.651,1.586-0.091,2.143
		c3.697,3.699,7.397,7.402,11.097,11.102c0.561,0.556,1.534,0.517,2.146-0.093c3.369-3.37,6.733-6.735,10.102-10.101
		c3.051,3.162,6.439,6.653,9.13,9.456c8.182,8.512,16.366,17.032,24.55,25.547c5.676,5.905,11.354,11.812,17.027,17.718
		c0.266,0.275,0.53,0.549,0.797,0.827c0.729,0.761,1.999,0.733,2.734,0c1.169-1.171,1.701-1.704,2.874-2.875
		c1.168-1.17,1.703-1.701,2.875-2.875c0.729-0.732,0.76-2.004,0-2.731c-0.276-0.268-0.557-0.529-0.83-0.797
		c-5.904-5.674-11.811-11.353-17.718-17.03c-8.515-8.18-17.031-16.366-25.547-24.551c-2.798-2.687-6.293-6.075-9.454-9.126
		c0.968-0.972,1.94-1.939,2.908-2.912c1.989-1.983,2.609-4.657,3.626-7.198c1.724-4.328,3.448-8.651,5.174-12.977
		c0.261-0.658,0.066-1.154-0.323-1.452C44.253,7.288,43.753,7.093,43.096,7.357z"/>
</g>
</svg>
