<?xml version="1.0" encoding="utf-8"?>
<!-- Generator: Adobe Illustrator 16.0.0, SVG Export Plug-In . SVG Version: 6.00 Build 0)  -->
<!DOCTYPE svg PUBLIC "-//W3C//DTD SVG 1.1//EN" "http://www.w3.org/Graphics/SVG/1.1/DTD/svg11.dtd">
<svg version="1.1" id="Layer_1" xmlns="http://www.w3.org/2000/svg" xmlns:xlink="http://www.w3.org/1999/xlink" x="0px" y="0px"
	 viewBox="0 0 100 100" enable-background="new 0 0 100 100" xml:space="preserve">
<g>
	<path fill="#232323" stroke="#A03C4F" stroke-width="0.9976" stroke-miterlimit="10" d="M87.444,12.579
		c-14.601-14.677-38.276-14.677-52.884,0c-14.604,14.67-14.604,38.459,0,53.138c14.607,14.672,38.283,14.672,52.884,0
		C102.052,51.038,102.052,27.254,87.444,12.579z M83.272,61.523c-12.299,12.354-32.236,12.354-44.534,0
		c-12.299-12.359-12.299-32.393,0-44.748c12.298-12.354,32.235-12.356,44.534,0C95.569,29.133,95.569,49.164,83.272,61.523z"/>
	<polygon fill="#232323" stroke="#A03C4F" stroke-width="0.9382" stroke-miterlimit="10" points="10.344,98.429 1.6,89.649
		25.559,65.561 34.303,74.342 	"/>
</g>
</svg>
